<mxfile host="app.diagrams.net" modified="2023-03-27T09:01:57.946Z" agent="Mozilla/5.0 (Windows NT 10.0; Win64; x64) AppleWebKit/537.36 (KHTML, like Gecko) Chrome/111.0.0.0 Safari/537.36" etag="3HlgpXdsXWH9PI4uJ6uY" version="21.1.1" type="device">
  <diagram id="C5RBs43oDa-KdzZeNtuy" name="Page-1">
    <mxGraphModel dx="1348" dy="563" grid="1" gridSize="10" guides="1" tooltips="1" connect="1" arrows="1" fold="1" page="1" pageScale="1" pageWidth="827" pageHeight="1169" math="0" shadow="0">
      <root>
        <mxCell id="WIyWlLk6GJQsqaUBKTNV-0" />
        <mxCell id="WIyWlLk6GJQsqaUBKTNV-1" parent="WIyWlLk6GJQsqaUBKTNV-0" />
        <mxCell id="gWZkaIXozR1S2nNQmR7D-23" value="" style="rounded=0;whiteSpace=wrap;html=1;shadow=1;fillColor=#FFFFFF;strokeColor=#4C0099;" vertex="1" parent="WIyWlLk6GJQsqaUBKTNV-1">
          <mxGeometry x="-50" y="30" width="500" height="510" as="geometry" />
        </mxCell>
        <mxCell id="gWZkaIXozR1S2nNQmR7D-1" value="" style="rounded=0;whiteSpace=wrap;html=1;rotation=90;" vertex="1" parent="WIyWlLk6GJQsqaUBKTNV-1">
          <mxGeometry x="8.13" y="206.88" width="408.75" height="195" as="geometry" />
        </mxCell>
        <mxCell id="gWZkaIXozR1S2nNQmR7D-2" value="Customer Profile" style="rounded=0;whiteSpace=wrap;html=1;shadow=1;" vertex="1" parent="WIyWlLk6GJQsqaUBKTNV-1">
          <mxGeometry x="146" y="130" width="133" height="30" as="geometry" />
        </mxCell>
        <mxCell id="gWZkaIXozR1S2nNQmR7D-3" value="Manage Booking" style="rounded=0;whiteSpace=wrap;html=1;shadow=1;" vertex="1" parent="WIyWlLk6GJQsqaUBKTNV-1">
          <mxGeometry x="146" y="170" width="133" height="30" as="geometry" />
        </mxCell>
        <mxCell id="gWZkaIXozR1S2nNQmR7D-4" value="Book Tickets" style="rounded=0;whiteSpace=wrap;html=1;shadow=1;" vertex="1" parent="WIyWlLk6GJQsqaUBKTNV-1">
          <mxGeometry x="146" y="210" width="133" height="30" as="geometry" />
        </mxCell>
        <mxCell id="gWZkaIXozR1S2nNQmR7D-5" value="Manage Train Info" style="rounded=0;whiteSpace=wrap;html=1;shadow=1;" vertex="1" parent="WIyWlLk6GJQsqaUBKTNV-1">
          <mxGeometry x="146" y="250" width="133" height="30" as="geometry" />
        </mxCell>
        <mxCell id="gWZkaIXozR1S2nNQmR7D-6" value="Search Train Schedule" style="rounded=0;whiteSpace=wrap;html=1;shadow=1;" vertex="1" parent="WIyWlLk6GJQsqaUBKTNV-1">
          <mxGeometry x="146" y="290" width="133" height="30" as="geometry" />
        </mxCell>
        <mxCell id="gWZkaIXozR1S2nNQmR7D-7" value="Manage Payment" style="rounded=0;whiteSpace=wrap;html=1;shadow=1;" vertex="1" parent="WIyWlLk6GJQsqaUBKTNV-1">
          <mxGeometry x="146" y="330" width="133" height="30" as="geometry" />
        </mxCell>
        <mxCell id="gWZkaIXozR1S2nNQmR7D-8" value="Make Payment" style="rounded=0;whiteSpace=wrap;html=1;shadow=1;" vertex="1" parent="WIyWlLk6GJQsqaUBKTNV-1">
          <mxGeometry x="146" y="370" width="133" height="30" as="geometry" />
        </mxCell>
        <mxCell id="gWZkaIXozR1S2nNQmR7D-9" value="Database Backup" style="rounded=0;whiteSpace=wrap;html=1;shadow=1;" vertex="1" parent="WIyWlLk6GJQsqaUBKTNV-1">
          <mxGeometry x="146" y="410" width="133" height="30" as="geometry" />
        </mxCell>
        <mxCell id="gWZkaIXozR1S2nNQmR7D-10" value="Reports" style="rounded=0;whiteSpace=wrap;html=1;shadow=1;" vertex="1" parent="WIyWlLk6GJQsqaUBKTNV-1">
          <mxGeometry x="146" y="450" width="133" height="30" as="geometry" />
        </mxCell>
        <mxCell id="gWZkaIXozR1S2nNQmR7D-11" value="Admin" style="shape=umlActor;verticalLabelPosition=bottom;verticalAlign=top;html=1;outlineConnect=0;" vertex="1" parent="WIyWlLk6GJQsqaUBKTNV-1">
          <mxGeometry x="-22" y="250" width="30" height="60" as="geometry" />
        </mxCell>
        <mxCell id="gWZkaIXozR1S2nNQmR7D-13" value="" style="endArrow=classic;html=1;rounded=0;entryX=0;entryY=0.5;entryDx=0;entryDy=0;" edge="1" parent="WIyWlLk6GJQsqaUBKTNV-1" target="gWZkaIXozR1S2nNQmR7D-2">
          <mxGeometry width="50" height="50" relative="1" as="geometry">
            <mxPoint x="20" y="270" as="sourcePoint" />
            <mxPoint x="140" y="150" as="targetPoint" />
          </mxGeometry>
        </mxCell>
        <mxCell id="gWZkaIXozR1S2nNQmR7D-14" value="" style="endArrow=classic;html=1;rounded=0;entryX=0;entryY=0.5;entryDx=0;entryDy=0;" edge="1" parent="WIyWlLk6GJQsqaUBKTNV-1" target="gWZkaIXozR1S2nNQmR7D-3">
          <mxGeometry width="50" height="50" relative="1" as="geometry">
            <mxPoint x="20" y="270" as="sourcePoint" />
            <mxPoint x="150" y="160" as="targetPoint" />
          </mxGeometry>
        </mxCell>
        <mxCell id="gWZkaIXozR1S2nNQmR7D-15" value="" style="endArrow=classic;html=1;rounded=0;entryX=0;entryY=0.5;entryDx=0;entryDy=0;" edge="1" parent="WIyWlLk6GJQsqaUBKTNV-1" target="gWZkaIXozR1S2nNQmR7D-5">
          <mxGeometry width="50" height="50" relative="1" as="geometry">
            <mxPoint x="20" y="270" as="sourcePoint" />
            <mxPoint x="160" y="170" as="targetPoint" />
          </mxGeometry>
        </mxCell>
        <mxCell id="gWZkaIXozR1S2nNQmR7D-16" value="" style="endArrow=classic;html=1;rounded=0;entryX=0;entryY=0.5;entryDx=0;entryDy=0;" edge="1" parent="WIyWlLk6GJQsqaUBKTNV-1" target="gWZkaIXozR1S2nNQmR7D-7">
          <mxGeometry width="50" height="50" relative="1" as="geometry">
            <mxPoint x="20" y="270" as="sourcePoint" />
            <mxPoint x="170" y="180" as="targetPoint" />
          </mxGeometry>
        </mxCell>
        <mxCell id="gWZkaIXozR1S2nNQmR7D-17" value="" style="endArrow=classic;html=1;rounded=0;entryX=0;entryY=0.5;entryDx=0;entryDy=0;" edge="1" parent="WIyWlLk6GJQsqaUBKTNV-1" target="gWZkaIXozR1S2nNQmR7D-9">
          <mxGeometry width="50" height="50" relative="1" as="geometry">
            <mxPoint x="20" y="270" as="sourcePoint" />
            <mxPoint x="180" y="190" as="targetPoint" />
          </mxGeometry>
        </mxCell>
        <mxCell id="gWZkaIXozR1S2nNQmR7D-18" value="" style="endArrow=classic;html=1;rounded=0;entryX=0;entryY=0.5;entryDx=0;entryDy=0;" edge="1" parent="WIyWlLk6GJQsqaUBKTNV-1" target="gWZkaIXozR1S2nNQmR7D-10">
          <mxGeometry width="50" height="50" relative="1" as="geometry">
            <mxPoint x="20" y="270" as="sourcePoint" />
            <mxPoint x="190" y="200" as="targetPoint" />
          </mxGeometry>
        </mxCell>
        <mxCell id="gWZkaIXozR1S2nNQmR7D-19" value="Customer" style="shape=umlActor;verticalLabelPosition=bottom;verticalAlign=top;html=1;outlineConnect=0;" vertex="1" parent="WIyWlLk6GJQsqaUBKTNV-1">
          <mxGeometry x="380" y="240" width="30" height="60" as="geometry" />
        </mxCell>
        <mxCell id="gWZkaIXozR1S2nNQmR7D-20" value="" style="endArrow=classic;html=1;rounded=0;entryX=1;entryY=0.5;entryDx=0;entryDy=0;" edge="1" parent="WIyWlLk6GJQsqaUBKTNV-1" target="gWZkaIXozR1S2nNQmR7D-4">
          <mxGeometry width="50" height="50" relative="1" as="geometry">
            <mxPoint x="360" y="260" as="sourcePoint" />
            <mxPoint x="420" y="170" as="targetPoint" />
          </mxGeometry>
        </mxCell>
        <mxCell id="gWZkaIXozR1S2nNQmR7D-21" value="" style="endArrow=classic;html=1;rounded=0;entryX=1;entryY=0.5;entryDx=0;entryDy=0;" edge="1" parent="WIyWlLk6GJQsqaUBKTNV-1" target="gWZkaIXozR1S2nNQmR7D-6">
          <mxGeometry width="50" height="50" relative="1" as="geometry">
            <mxPoint x="360" y="260" as="sourcePoint" />
            <mxPoint x="289" y="235" as="targetPoint" />
          </mxGeometry>
        </mxCell>
        <mxCell id="gWZkaIXozR1S2nNQmR7D-22" value="" style="endArrow=classic;html=1;rounded=0;entryX=1;entryY=0.5;entryDx=0;entryDy=0;" edge="1" parent="WIyWlLk6GJQsqaUBKTNV-1" target="gWZkaIXozR1S2nNQmR7D-8">
          <mxGeometry width="50" height="50" relative="1" as="geometry">
            <mxPoint x="360" y="260" as="sourcePoint" />
            <mxPoint x="299" y="245" as="targetPoint" />
          </mxGeometry>
        </mxCell>
      </root>
    </mxGraphModel>
  </diagram>
</mxfile>
